HIERARCHY
ROOT Hips
{
	OFFSET 0.00000 0.00000 0.00000
	CHANNELS 6 Xposition Yposition Zposition Zrotation Yrotation Xrotation 
	JOINT LHipJoint
	{
		OFFSET 0 0 0
		CHANNELS 3 Zrotation Yrotation Xrotation
		JOINT LeftUpLeg
		{
			OFFSET 1.43652 -1.81092 0.91346
			CHANNELS 3 Zrotation Yrotation Xrotation
			JOINT LeftLeg
			{
				OFFSET 2.45984 -6.75837 0.00000
				CHANNELS 3 Zrotation Yrotation Xrotation
				JOINT LeftFoot
				{
					OFFSET 2.63718 -7.24559 0.00000
					CHANNELS 3 Zrotation Yrotation Xrotation
					JOINT LeftToeBase
					{
						OFFSET 0.19690 -0.54098 2.12239
						CHANNELS 3 Zrotation Yrotation Xrotation
						End Site
						{
							OFFSET 0.00000 -0.00000 1.10116
						}
					}
				}
			}
		}
	}
	JOINT RHipJoint
	{
		OFFSET 0 0 0
		CHANNELS 3 Zrotation Yrotation Xrotation
		JOINT RightUpLeg
		{
			OFFSET -1.35116 -1.81092 0.91345
			CHANNELS 3 Zrotation Yrotation Xrotation
			JOINT RightLeg
			{
				OFFSET -2.55576 -7.02189 0.00000
				CHANNELS 3 Zrotation Yrotation Xrotation
				JOINT RightFoot
				{
					OFFSET -2.61938 -7.19669 0.00000
					CHANNELS 3 Zrotation Yrotation Xrotation
					JOINT RightToeBase
					{
						OFFSET -0.32509 -0.89318 2.23646
						CHANNELS 3 Zrotation Yrotation Xrotation
						End Site
						{
							OFFSET -0.00000 -0.00000 1.19625
						}
					}
				}
			}
		}
	}
	JOINT LowerBack
	{
		OFFSET 0 0 0
		CHANNELS 3 Zrotation Yrotation Xrotation
		JOINT Spine
		{
			OFFSET 0.05193 2.08077 -0.11958
			CHANNELS 3 Zrotation Yrotation Xrotation
			JOINT Spine1
			{
				OFFSET 0.04960 2.08447 0.01967
				CHANNELS 3 Zrotation Yrotation Xrotation
				JOINT Neck
				{
					OFFSET 0 0 0
					CHANNELS 3 Zrotation Yrotation Xrotation
					JOINT Neck1
					{
						OFFSET -0.10699 1.82066 0.27584
						CHANNELS 3 Zrotation Yrotation Xrotation
						JOINT Head
						{
							OFFSET 0.14949 1.84747 -0.32279
							CHANNELS 3 Zrotation Yrotation Xrotation
							End Site
							{
								OFFSET 0.04969 1.88916 -0.14562
							}
						}
					}
				}
				JOINT LeftShoulder
				{
					OFFSET 0 0 0
					CHANNELS 3 Zrotation Yrotation Xrotation
					JOINT LeftArm
					{
						OFFSET 3.73629 1.27211 -0.12847
						CHANNELS 3 Zrotation Yrotation Xrotation
						JOINT LeftForeArm
						{
							OFFSET 5.10995 -0.00000 0.00000
							CHANNELS 3 Zrotation Yrotation Xrotation
							JOINT LeftHand
							{
								OFFSET 3.21207 -0.00000 0.00000
								CHANNELS 3 Zrotation Yrotation Xrotation
								JOINT LeftFingerBase
								{
									OFFSET 0 0 0
									CHANNELS 3 Zrotation Yrotation Xrotation
									JOINT LeftHandIndex1
									{
										OFFSET 0.63349 -0.00000 0.00000
										CHANNELS 3 Zrotation Yrotation Xrotation
										End Site
										{
											OFFSET 0.51074 -0.00000 0.00000
										}
									}
								}
								JOINT LThumb
								{
									OFFSET 0 0 0
									CHANNELS 3 Zrotation Yrotation Xrotation
									End Site
									{
										OFFSET 0.51853 -0.00000 0.51853
									}
								}
							}
						}
					}
				}
				JOINT RightShoulder
				{
					OFFSET 0 0 0
					CHANNELS 3 Zrotation Yrotation Xrotation
					JOINT RightArm
					{
						OFFSET -3.70251 1.29541 -0.35354
						CHANNELS 3 Zrotation Yrotation Xrotation
						JOINT RightForeArm
						{
							OFFSET -5.25109 -0.00000 0.00000
							CHANNELS 3 Zrotation Yrotation Xrotation
							JOINT RightHand
							{
								OFFSET -3.28364 -0.00000 0.00000
								CHANNELS 3 Zrotation Yrotation Xrotation
								JOINT RightFingerBase
								{
									OFFSET 0 0 0
									CHANNELS 3 Zrotation Yrotation Xrotation
									JOINT RightHandIndex1
									{
										OFFSET -0.59974 -0.00000 0.00000
										CHANNELS 3 Zrotation Yrotation Xrotation
										End Site
										{
											OFFSET -0.48353 -0.00000 0.00000
										}
									}
								}
								JOINT RThumb
								{
									OFFSET 0 0 0
									CHANNELS 3 Zrotation Yrotation Xrotation
									End Site
									{
										OFFSET -0.49091 -0.00000 0.49091
									}
								}
							}
						}
					}
				}
			}
		}
	}
}
MOTION
Frames: 5
Frame Time: 0.0465116
0.00 0.00 0.00 -186.1970 -157.5340 -150.7890 0.0000 0.0000 0.0000 -0.2302 -20.3609 -71.0184 6.0302 14.4575 45.1028 -1.4343 -20.6230 7.6214 0.1253 2.2822 6.2863 0.0000 0.0000 0.0000 25.7211 -16.1098 -28.4855 -7.8454 -16.0044 52.0040 -1.5339 0.7705 -23.1951 -1.6294 8.0472 -22.8577 4.0586 6.0483 26.8853 3.7509 9.0914 5.1709 -1.1647 4.1167 -9.0081 -16.2225 -11.5413 -13.7690 19.3351 -12.5275 -13.8345 7.8596 -5.8825 0.5308 0.0000 0.0000 0.0000 -90.5968 -28.7284 68.1031 71.5792 -58.6782 -44.1179 -0.0000 0.0000 -9.9002 10.5778 33.9186 5.9491 -7.1250 0.0000 -0.0000 -26.7538 62.3640 -11.7377 0.0000 0.0000 0.0000 74.9117 59.3808 17.5192 -22.5134 33.5524 -6.8675 0.0000 -0.0000 -32.2186 -30.6591 -2.9569 1.7515 7.1250 -0.0000 -0.0000 -3.3113 -33.4030 -0.9427
0.00 0.00 0.00 -187.6360 -150.7850 -152.6260 0.0000 0.0000 0.0000 0.5328 -18.3649 -68.9937 6.2975 14.7106 46.1643 -0.8888 -16.4339 5.3438 0.0018 0.2759 0.7581 0.0000 0.0000 0.0000 23.3776 -17.0320 -28.2553 -8.0676 -16.1688 52.8059 -2.2404 -1.5485 -28.8985 -1.4698 7.6613 -21.6901 3.8526 5.8594 27.3844 3.8756 8.8114 5.1484 -0.8722 3.9658 -9.3471 -14.9028 -9.6453 -16.2702 16.9046 -10.1989 -10.0011 6.9467 -4.5899 1.3571 0.0000 -0.0000 0.0000 -89.4004 -23.8146 69.4858 69.5719 -58.3629 -42.4060 -0.0000 0.0000 -6.9316 14.4361 32.4625 7.8670 -7.1250 0.0000 -0.0000 -21.2639 62.0285 -9.0277 0.0000 -0.0000 0.0000 80.1745 43.4632 30.1803 -35.1406 44.9122 -14.9125 0.0000 -0.0000 -43.9768 -24.0641 -5.9188 2.6366 7.1250 -0.0000 -0.0000 2.2389 -36.4496 0.4711
0.00 0.00 0.00 -189.8560 -141.5980 -154.2170 0.0000 0.0000 0.0000 1.6819 -14.6777 -65.5360 6.3274 14.7383 46.2819 -0.3937 -11.0416 4.2286 0.0426 -1.3317 -3.6620 0.0000 0.0000 0.0000 21.6839 -17.2435 -28.0227 -8.2452 -16.2967 53.4412 -2.5607 -3.9544 -31.8322 -1.4889 7.7086 -21.8324 3.1602 5.7741 27.3512 3.6423 8.4365 5.3116 -0.6075 3.7996 -9.2155 -13.1182 -6.9595 -18.8590 13.9833 -6.9142 -5.6533 5.9369 -2.8896 2.2848 0.0000 -0.0000 0.0000 -90.2510 -17.8382 66.5960 63.8794 -57.2581 -37.5871 -0.0000 -0.0000 2.4889 16.9800 28.6174 8.3205 -7.1250 0.0000 -0.0000 -15.6124 58.9981 -5.4236 0.0000 -0.0000 0.0000 83.0231 27.6522 45.6882 -51.7272 53.6688 -27.5596 0.0000 -0.0000 -60.1824 -22.8598 -7.2910 3.0626 7.1250 -0.0000 -0.0000 3.3736 -37.8652 0.5934
0.00 0.00 0.00 -195.4000 -117.0930 -153.6820 0.0000 0.0000 0.0000 8.3614 -9.6233 -50.4918 3.4176 11.3421 33.4426 0.5800 10.1924 14.3509 0.2865 -3.4424 -9.5130 0.0000 0.0000 0.0000 18.3616 -6.9356 -27.1364 -6.6799 -15.0563 47.6530 -3.0119 -1.2995 -33.3486 -0.8678 5.9398 -16.6099 1.3747 4.3892 24.3309 2.3792 5.9291 5.2780 0.0447 2.6871 -7.7811 -8.1928 2.8159 -20.6241 5.9054 5.2059 3.1773 3.6071 2.8101 3.8288 0.0000 -0.0000 0.0000 -88.2746 -5.1096 66.3094 62.8132 -57.0141 -36.6915 -0.0000 -0.0000 2.3319 27.5872 15.5036 7.9507 -7.1250 0.0000 -0.0000 -0.0624 47.3585 -0.0036 0.0000 -0.0000 0.0000 88.4023 13.0905 60.9318 -73.8519 58.9914 -46.0627 0.0000 -0.0000 -77.7771 -19.7893 -9.3247 3.3366 7.1250 -0.0000 -0.0000 6.2621 -39.8032 0.8058
0.00 0.00 0.00 -197.7360 -108.6220 -152.5420 0.0000 0.0000 0.0000 8.1018 -8.9991 -45.8087 3.9782 12.1313 36.1981 0.0583 1.5324 4.2849 0.0181 -0.8689 -2.3882 0.0000 0.0000 0.0000 16.4354 -0.8919 -28.2194 -6.7266 -15.0973 47.8327 -2.6177 1.7109 -30.1866 -0.6579 5.1877 -14.4447 2.4132 3.2587 23.6761 2.0546 4.6684 5.1012 -0.4856 2.0657 -7.5204 -5.9677 7.0152 -19.6619 2.6052 10.5067 5.9348 2.6790 5.1942 4.4394 0.0000 0.0000 0.0000 -90.4829 -8.3334 69.3545 63.1892 -57.1016 -37.0071 -0.0000 -0.0000 1.4832 32.0013 8.0801 5.0197 -7.1250 0.0000 -0.0000 4.4926 39.4455 -0.6164 0.0000 0.0000 0.0000 85.1273 10.4372 65.6612 -93.3330 59.9580 -62.8860 0.0000 -0.0000 -67.3988 -18.1943 -1.6788 0.5517 7.1250 -0.0000 -0.0000 6.7173 -31.7020 2.1983
